<?xml version="1.0" encoding="UTF-8"?>
<svg width="200" height="200" viewBox="0 0 200 200" version="1.1" xmlns="http://www.w3.org/2000/svg">
  <!-- Shield background -->
  <path d="M100 10 L180 45 V95 C180 150 145 180 100 190 C55 180 20 150 20 95 V45 Z" 
        fill="#2B3F6B" stroke="#1A2942" stroke-width="4"/>
  
  <!-- Inner shield gradient -->
  <path d="M100 20 L170 50 V95 C170 145 140 170 100 180 C60 170 30 145 30 95 V50 Z" 
        fill="url(#shieldGradient)"/>
  
  <!-- Connected nodes representing dependencies -->
  <g transform="translate(60,65)" fill="none" stroke="#7EB8FF" stroke-width="3">
    <circle cx="40" cy="40" r="8" fill="#7EB8FF"/>
    <circle cx="15" cy="70" r="8" fill="#7EB8FF"/>
    <circle cx="65" cy="70" r="8" fill="#7EB8FF"/>
    <line x1="40" y1="40" x2="15" y2="70"/>
    <line x1="40" y1="40" x2="65" y2="70"/>
    <line x1="15" y1="70" x2="65" y2="70"/>
  </g>

  <!-- Checkmark overlay -->
  <path d="M85 95 L95 115 L120 75" 
        fill="none" stroke="#4CAF50" stroke-width="8" stroke-linecap="round" stroke-linejoin="round"/>
        
  <!-- Gradient definition -->
  <defs>
    <linearGradient id="shieldGradient" x1="0%" y1="0%" x2="100%" y2="100%">
      <stop offset="0%" style="stop-color:#3B5998"/>
      <stop offset="100%" style="stop-color:#192F60"/>
    </linearGradient>
  </defs>
</svg> 