<?xml version="1.0" encoding="UTF-8"?>
<svg width="200" height="200" viewBox="0 0 200 200" version="1.1" xmlns="http://www.w3.org/2000/svg">
  <!-- Main shield with 3D effect -->
  <defs>
    <linearGradient id="shieldGradient" x1="0%" y1="0%" x2="100%" y2="100%">
      <stop offset="0%" style="stop-color:#4A90E2"/>
      <stop offset="100%" style="stop-color:#2C5282"/>
    </linearGradient>
    
    <filter id="shadow" x="-20%" y="-20%" width="140%" height="140%">
      <feDropShadow dx="0" dy="4" stdDeviation="4" flood-color="#000000" flood-opacity="0.25"/>
    </filter>
    
    <linearGradient id="nodeGradient" x1="0%" y1="0%" x2="100%" y2="100%">
      <stop offset="0%" style="stop-color:#81E6D9"/>
      <stop offset="100%" style="stop-color:#4FD1C5"/>
    </linearGradient>
  </defs>

  <!-- Shield base with 3D effect -->
  <path d="M100 15 
           L175 45 
           V100 
           C175 150 
           140 180 
           100 190 
           C60 180 
           25 150 
           25 100 
           V45 Z" 
        fill="url(#shieldGradient)" 
        stroke="#2D3748" 
        stroke-width="3"
        filter="url(#shadow)"/>

  <!-- Dependency graph visualization -->
  <g transform="translate(50,60)">
    <!-- Connection lines with animation -->
    <g stroke="#81E6D9" stroke-width="2.5" opacity="0.6">
      <line x1="50" y1="30" x2="20" y2="70" stroke-dasharray="2,2">
        <animate attributeName="stroke-dashoffset" from="0" to="4" dur="1s" repeatCount="indefinite"/>
      </line>
      <line x1="50" y1="30" x2="80" y2="70" stroke-dasharray="2,2">
        <animate attributeName="stroke-dashoffset" from="0" to="4" dur="1s" repeatCount="indefinite"/>
      </line>
      <line x1="50" y1="30" x2="50" y2="70" stroke-dasharray="2,2">
        <animate attributeName="stroke-dashoffset" from="0" to="4" dur="1s" repeatCount="indefinite"/>
      </line>
    </g>

    <!-- Nodes -->
    <circle cx="50" cy="30" r="10" fill="url(#nodeGradient)" stroke="#2D3748" stroke-width="2"/>
    <circle cx="20" cy="70" r="10" fill="url(#nodeGradient)" stroke="#2D3748" stroke-width="2"/>
    <circle cx="50" cy="70" r="10" fill="url(#nodeGradient)" stroke="#2D3748" stroke-width="2"/>
    <circle cx="80" cy="70" r="10" fill="url(#nodeGradient)" stroke="#2D3748" stroke-width="2"/>
  </g>

  <!-- Shield overlay for depth -->
  <path d="M100 20 
           L165 47 
           V100 
           C165 145 
           135 172 
           100 180 
           C65 172 
           35 145 
           35 100 
           V47 Z" 
        fill="none" 
        stroke="#FFFFFF" 
        stroke-width="1.5"
        opacity="0.2"/>

</svg> 